<?xml version="1.0" encoding="utf-8"?>
<!-- Generator: Adobe Illustrator 25.4.1, SVG Export Plug-In . SVG Version: 6.00 Build 0)  -->
<svg version="1.1" id="Layer_1" xmlns="http://www.w3.org/2000/svg" xmlns:xlink="http://www.w3.org/1999/xlink" x="0px" y="0px"
	 viewBox="0 0 1000 1000" style="enable-background:new 0 0 1000 1000;" xml:space="preserve">
<style type="text/css">
	.st0{fill:#FFFFFF;}
</style>
<g>
	<circle class="st0" cx="500" cy="500" r="500"/>
	<g>
		<path d="M786.1,361c-9.2-3.2-18.8-6.2-28.6-9c1.6-6.6,3.1-13.1,4.4-19.5c21.6-105.1,7.5-189.7-40.8-217.5
			c-46.3-26.7-122.1,1.1-198.6,67.7c-7.4,6.4-14.7,13.2-22.1,20.3c-4.9-4.7-9.8-9.2-14.7-13.6c-80.2-71.2-160.6-101.2-208.9-73.3
			c-46.3,26.8-60,106.4-40.5,205.9c1.9,9.6,4.1,19.4,6.6,29.4c-11.4,3.2-22.4,6.7-32.9,10.3C116,394.6,56,446,56,499.3
			c0,55,64.5,110.2,162.4,143.7c7.7,2.7,15.8,5.1,24,7.5c-2.7,10.8-5,21.4-7,31.7c-18.6,97.8-4.1,175.5,42.1,202.1
			c47.7,27.5,127.7-0.8,205.6-68.9c6.2-5.4,12.3-11.1,18.5-17.1c8,7.7,16,15,24,21.9c75.5,64.9,150,91.2,196.1,64.5
			c47.6-27.6,63.1-111,43-212.5c-1.5-7.8-3.3-15.7-5.3-23.7c5.6-1.7,11.1-3.4,16.5-5.2C877.8,609.6,944,555,944,499.3
			C944,445.8,882.1,394,786.1,361z M547.4,211.3c65.6-57.1,126.8-79.6,154.8-63.5c29.7,17.2,41.3,86.3,22.6,177
			c-1.2,5.8-2.5,11.7-4,17.6C684,334,644,327.7,602.1,323.8c-24.4-34.8-49.7-66.3-75.1-93.7C533.8,223.5,540.6,217.2,547.4,211.3z
			 M318.2,544.8c7.9,15.4,16.3,30.7,25.2,46h0c9,15.5,18.3,30.8,27.9,45.6c-29.1-3.3-56.5-7.6-81.8-13.2
			C297.2,597.9,306.9,571.5,318.2,544.8z M318.1,455.5c-11-26.2-20.5-52-28.2-76.8c25.3-5.7,52.4-10.3,80.5-13.8
			c-9.3,14.5-18.4,29.5-27.2,44.7v0C334.4,424.8,326.1,440.2,318.1,455.5z M356.4,536c-6.3-11.9-12.4-23.9-18.1-35.8
			c11.5-23.9,24.1-47.9,37.8-71.6c6.9-11.9,13.9-23.6,21.1-35c7.2-11.4,14.5-22.6,22-33.5c26.4-2,53.5-3,80.9-3
			c13.8,0,27.4,0.3,40.9,0.8c13.5,0.5,26.9,1.3,40.1,2.3c14.7,21.7,29,44.5,42.8,68.3c13.9,24.1,26.7,47.9,38.3,71.3
			c-11.5,23.8-24.3,47.8-38.2,71.9c-13.9,24.1-28.1,47.1-42.6,68.7c-26.3,1.9-53.6,2.8-81.3,2.8c-27.6,0-54.5-0.9-80.4-2.5
			c-15.1-22-29.6-45-43.4-68.9C369.3,559.8,362.7,547.9,356.4,536z M656.8,590.5c9-15.7,17.6-31.4,25.8-47.1
			c11.9,27.1,21.9,53.2,29.8,78.1c-25.8,5.9-53.6,10.6-82.9,14.1C638.7,621,647.8,606,656.8,590.5z M682.2,455.6
			c-8.1-15.3-16.6-30.7-25.6-46.2c-8.8-15.2-17.8-30-27-44.4c28.3,3.6,55.5,8.3,81,14.2C703,403.6,693.4,429.3,682.2,455.6z
			 M500.4,257.2c17.5,19,35,40.1,52.3,63.1c-17.4-0.8-35-1.3-52.7-1.3c-17.6,0-35,0.4-52.3,1.2C465,297.5,482.6,276.4,500.4,257.2z
			 M295.8,149c29.7-17.2,95.4,7.3,164.7,68.8c4.4,3.9,8.9,8,13.3,12.3c-25.8,27.7-51.3,59.3-75.6,93.6
			c-41.8,3.9-81.8,10.1-118.5,18.4c-2.3-9.3-4.4-18.4-6.1-27.4C256.9,229.5,268,165.1,295.8,149z M252.5,613.9
			c-7.5-2.2-14.9-4.5-21.9-6.9c-43.3-14.8-79.1-34-103.6-55c-22-18.9-33.1-37.6-33.1-52.8c0-32.3,48.2-73.6,128.6-101.6
			c9.8-3.4,20-6.6,30.6-9.6c11.1,36.2,25.7,73.9,43.3,112.2C278.5,539,263.8,577.4,252.5,613.9z M458.1,786.9
			c-34.4,30.1-69,51.5-99.4,62.2c-27.3,9.7-49.1,9.9-62.3,2.3c-28-16.2-39.7-78.5-23.8-162.2c1.8-9.6,4-19.4,6.5-29.5
			c36.4,8,76.6,13.8,119.7,17.3c24.6,34.6,50.3,66.4,76.2,94.2C469.4,776.8,463.7,782,458.1,786.9z M501.5,744
			c-18-19.4-35.9-40.9-53.4-64c17,0.7,34.3,1,52,1c18.1,0,36-0.4,53.6-1.2C536.3,703.4,518.9,724.8,501.5,744z M731.9,796.8
			c-5.3,28.5-15.9,47.5-29.1,55.1c-28,16.2-87.8-4.9-152.4-60.4c-7.4-6.4-14.9-13.2-22.3-20.4c25-27.4,50-59.2,74.4-94.5
			c42.9-3.8,83.5-10,120.3-18.5c1.8,7.3,3.4,14.5,4.8,21.5C736.5,724.4,737.7,765,731.9,796.8z M764.1,607.3
			c-4.8,1.6-9.8,3.2-14.9,4.7c-11.2-35.6-26.4-73.4-45-112.5c17.7-38.2,32.3-75.5,43.2-110.9c9.1,2.6,17.9,5.4,26.4,8.3
			C856,425.2,906.1,467,906.1,499.3C906.1,533.6,852,578.2,764.1,607.3z"/>
		<ellipse transform="matrix(0.7071 -0.7071 0.7071 0.7071 -206.5783 499.776)" cx="500" cy="499.3" rx="79.3" ry="79.3"/>
	</g>
</g>
</svg>
